<svg xmlns="http://www.w3.org/2000/svg" height="48" viewBox="0 96 960 960" width="48"><path d="M780 951 480 651 372 759q10 18 12.5 33.5T387 828q0 68.875-45.589 114.438Q295.823 988 226.911 988 158 988 112.5 942.411 67 896.823 67 827.911 67 759 112.562 713.5 158.125 668 227 668q18 0 35.5 4.5T299 687l108-107-110-110q-17 8-34.5 10.5T227 483q-68.875 0-114.438-45.589Q67 391.823 67 322.911 67 254 112.588 208.5 158.177 163 227.089 163 296 163 341.5 208.562 387 254.125 387 323q0 20-2 36.5T375 392l519 520v39H780ZM605 532l-76-76 251-252h114v38L605 532ZM226.832 410q36.693 0 61.931-25.069Q314 359.861 314 323.168t-25.069-61.931Q263.861 236 227.168 236t-61.93 25.069Q140 286.139 140 322.832t25.069 61.931Q190.139 410 226.832 410Zm255.025 195q10.743 0 18.443-7.557 7.7-7.557 7.7-18.3t-7.557-18.443q-7.557-7.7-18.3-7.7t-18.443 7.557q-7.7 7.557-7.7 18.3t7.557 18.443q7.557 7.7 18.3 7.7ZM226.832 915q36.693 0 61.931-25.069Q314 864.861 314 828.168t-25.069-61.931Q263.861 741 227.168 741t-61.93 25.069Q140 791.139 140 827.832t25.069 61.931Q190.139 915 226.832 915Z"/></svg>